Aka Demonen, Diabolique.
 
http://www.imdb.com/title/tt0046911/

Source: Les.Diaboliques.1955.720p.BluRay.X264-PROFOUND Thanks!

Subs: Dutch, English, Greek and Spanish.

Sample and Screens included.

General
Complete name                            : Les Diaboliques-720p MP4 AAC x264 BRRip 1955-CC.mp4
Format                                   : MPEG-4
Format profile                           : Base Media
Codec ID                                 : isom
File size                                : 2.27 GiB
Duration                                 : 1h 56mn
Overall bit rate mode                    : Variable
Overall bit rate                         : 2 786 Kbps
Encoded date                             : UTC 2012-11-16 16:19:07

Video
ID                                       : 1
Format                                   : AVC
Format/Info                              : Advanced Video Codec
Format profile                           : High@L4.1
Format settings, CABAC                   : Yes
Format settings, ReFrames                : 5 frames
Codec ID                                 : avc1
Codec ID/Info                            : Advanced Video Coding
Duration                                 : 1h 56mn
Bit rate                                 : 2 625 Kbps
Maximum bit rate                         : 14.2 Mbps
Width                                    : 960 pixels
Height                                   : 720 pixels
Display aspect ratio                     : 4:3
Frame rate mode                          : Variable
Frame rate                               : 23.976 fps
Minimum frame rate                       : 23.810 fps
Maximum frame rate                       : 24.390 fps
Color space                              : YUV
Chroma subsampling                       : 4:2:0
Bit depth                                : 8 bits
Scan type                                : Progressive
Bits/(Pixel*Frame)                       : 0.158
Stream size                              : 2.14 GiB (94%)
Writing library                          : x264 core 112

Audio
ID                                       : 2
Format                                   : AAC
Format/Info                              : Advanced Audio Codec
Format profile                           : LC
Codec ID                                 : 40
Duration                                 : 1h 56mn
Bit rate mode                            : Variable
Bit rate                                 : 160 Kbps
Maximum bit rate                         : 193 Kbps
Channel(s)                               : 1 channel
Channel positions                        : Front: C
Sampling rate                            : 48.0 KHz
Compression mode                         : Lossy
Delay relative to video                  : 83ms
Stream size                              : 134 MiB (6%)
Language                                 : French

Enjoy...

Requested by DreamExtractor.

Coming soon: The Horse Whisperer, Evita, Apollo 13, The Interpreter, Jay and Silent Bob...